<?xml version="1.0" standalone="no"?>
<!DOCTYPE svg PUBLIC "-//W3C//DTD SVG 20010904//EN"
 "http://www.w3.org/TR/2001/REC-SVG-20010904/DTD/svg10.dtd">
<svg version="1.0" xmlns="http://www.w3.org/2000/svg"
 width="700.000000pt" height="700.000000pt" viewBox="0 0 700.000000 700.000000"
 preserveAspectRatio="xMidYMid meet">
<metadata>
Created by potrace 1.14, written by Peter Selinger 2001-2017
</metadata>
<g transform="translate(0.000000,700.000000) scale(0.100000,-0.100000)"
fill="#000000" stroke="none">
<path d="M3008 5685 c-2 -2 -25 -5 -52 -8 -61 -8 -167 -43 -226 -75 -83 -45
-134 -90 -310 -267 -239 -241 -308 -292 -467 -343 -87 -29 -158 -34 -455 -35
-270 0 -323 -5 -423 -40 -249 -86 -447 -320 -482 -572 -4 -27 -8 -579 -8
-1225 0 -948 3 -1185 13 -1225 8 -27 16 -59 18 -70 2 -11 24 -62 50 -114 38
-76 62 -110 128 -176 118 -119 256 -191 411 -214 73 -11 4577 -8 4620 3 17 4
62 18 101 31 195 65 360 222 437 416 54 135 54 128 52 1399 -1 1161 -2 1176
-22 1247 -70 238 -223 404 -458 497 -88 35 -166 43 -449 44 -347 2 -414 11
-538 72 -101 50 -149 90 -353 292 -220 218 -249 241 -355 294 -136 67 -178 71
-735 71 -272 0 -496 -1 -497 -2z m-1420 -1119 c18 -9 43 -33 56 -54 102 -156
-63 -343 -230 -262 -63 31 -97 87 -97 160 -1 94 55 162 144 179 48 8 77 3 127
-23z m2042 20 c112 -13 164 -24 270 -58 512 -165 870 -654 873 -1193 1 -145
-5 -199 -39 -332 -59 -240 -188 -454 -376 -627 -158 -145 -341 -243 -552 -296
-112 -28 -143 -31 -286 -34 -255 -6 -504 65 -717 203 -181 117 -364 328 -456
524 -35 75 -83 211 -92 262 -2 17 -10 56 -16 89 -14 78 -17 238 -7 329 50 435
300 798 689 1000 46 24 93 46 104 49 11 4 45 15 76 27 54 19 80 26 144 37 17
3 46 9 65 13 19 4 69 9 110 10 41 1 76 3 77 5 3 2 77 -2 133 -8z"/>
<path d="M3336 4214 c-198 -38 -342 -116 -486 -263 -119 -121 -190 -248 -237
-421 -26 -98 -24 -338 5 -442 74 -269 253 -481 506 -598 393 -182 865 -55
1120 304 43 60 102 177 124 246 39 121 53 331 30 431 -5 24 -12 54 -14 67 -3
13 -12 44 -20 70 -74 220 -223 393 -447 520 -38 22 -207 85 -207 77 0 -2 -15
1 -32 7 -52 15 -264 17 -342 2z"/>
</g>
</svg>
